<svg width="77" height="18" viewBox="0 0 77 18" fill="none" xmlns="http://www.w3.org/2000/svg">
<g clip-path="url(#clip0_209_4580)">
<path d="M4.56002 17V11H14.208V7.78398H4.56002V4.15998H14.568V0.919983H0.960022V17H4.56002ZM19.7966 17.24C22.4606 17.24 24.1406 16.112 24.6926 14.24H24.8846V17H28.2446V9.94398C28.2446 6.79998 26.3486 4.73598 22.3406 4.73598C18.3806 4.73598 15.8846 6.79998 15.8846 9.77598V9.84798H19.5086V9.75198C19.5086 8.38398 20.2526 7.90398 22.0766 7.90398C23.9966 7.90398 24.6926 8.33598 24.6926 9.89598V10.352L19.5326 10.88C16.9646 11.144 15.6446 12.248 15.6446 14.024C15.6446 16.04 17.2046 17.24 19.7966 17.24ZM19.2686 13.784C19.2686 13.208 19.6526 12.968 20.5166 12.896L24.6926 12.416C24.5966 14.12 23.2766 14.696 20.8286 14.696C19.7726 14.696 19.2686 14.432 19.2686 13.784ZM33.6694 3.75198V0.919983H30.0694V3.75198H33.6694ZM33.6694 17V4.97598H30.0694V17H33.6694ZM47.8177 17V13.856H41.8898L39.6098 14.024V13.784L41.8898 12.368L47.4578 8.07198V4.97598H35.4098V8.14398H40.2098L42.7298 7.99998V8.23998L40.2098 9.82398L35.0498 13.928V17H47.8177ZM52.9373 17.24C55.6013 17.24 57.2813 16.112 57.8333 14.24H58.0253V17H61.3853V9.94398C61.3853 6.79998 59.4893 4.73598 55.4813 4.73598C51.5213 4.73598 49.0253 6.79998 49.0253 9.77598V9.84798H52.6493V9.75198C52.6493 8.38398 53.3933 7.90398 55.2173 7.90398C57.1373 7.90398 57.8333 8.33598 57.8333 9.89598V10.352L52.6733 10.88C50.1053 11.144 48.7853 12.248 48.7853 14.024C48.7853 16.04 50.3453 17.24 52.9373 17.24ZM52.4093 13.784C52.4093 13.208 52.7933 12.968 53.6573 12.896L57.8333 12.416C57.7373 14.12 56.4173 14.696 53.9693 14.696C52.9133 14.696 52.4093 14.432 52.4093 13.784ZM66.81 17V10.928C66.81 8.88798 67.626 7.97598 69.906 7.97598C72.114 7.97598 72.906 8.79198 72.906 10.712V17H76.506V9.51198C76.506 6.84798 74.946 4.73598 71.658 4.73598C68.514 4.73598 67.074 6.65598 66.762 8.67198H66.546V4.97598H63.21V17H66.81Z" fill="#C2C2D2"/>
</g>
<defs>
<clipPath id="clip0_209_4580">
<rect width="77" height="18" fill="white"/>
</clipPath>
</defs>
</svg>
