<svg width="77" height="77" viewBox="0 0 77 77" fill="none" xmlns="http://www.w3.org/2000/svg">
<g clip-path="url(#clip0_311_470)">
<g filter="url(#filter0_dd_311_470)">
<mask id="mask0_311_470" style="mask-type:luminance" maskUnits="userSpaceOnUse" x="6" y="6" width="65" height="65">
<path d="M54.6855 6.12506H22.3105C13.3704 6.12506 6.12305 13.356 6.12305 22.2759V54.5774C6.12305 63.4973 13.3704 70.7282 22.3105 70.7282H54.6855C63.6257 70.7282 70.873 63.4973 70.873 54.5774V22.2759C70.873 13.356 63.6257 6.12506 54.6855 6.12506Z" fill="white"/>
</mask>
<g mask="url(#mask0_311_470)">
<path d="M54.6855 6.12506H22.3105C13.3704 6.12506 6.12305 13.356 6.12305 22.2759V54.5774C6.12305 63.4973 13.3704 70.7282 22.3105 70.7282H54.6855C63.6257 70.7282 70.873 63.4973 70.873 54.5774V22.2759C70.873 13.356 63.6257 6.12506 54.6855 6.12506Z" fill="#101010"/>
<path d="M54.6855 6.12506H22.3105C13.3704 6.12506 6.12305 13.356 6.12305 22.2759V54.5774C6.12305 63.4973 13.3704 70.7282 22.3105 70.7282H54.6855C63.6257 70.7282 70.873 63.4973 70.873 54.5774V22.2759C70.873 13.356 63.6257 6.12506 54.6855 6.12506Z" fill="url(#paint0_linear_311_470)"/>
<path d="M38.4189 6.12506H38.5761V70.7282H38.4189V6.12506Z" fill="#1E1E2B"/>
<path d="M70.8731 38.3477V38.5047H6.12305V38.3477H70.8731Z" fill="#1E1E2B"/>
<path d="M59.9502 6.12506H60.1073V70.7282H59.9502V6.12506Z" fill="#1E1E2B"/>
<path d="M27.6543 6.12506H27.8114V70.7282H27.6543V6.12506Z" fill="#1E1E2B"/>
<path d="M49.1855 6.12506H49.3427V70.7282H49.1855V6.12506Z" fill="#1E1E2B"/>
<path d="M16.8887 6.12506H17.0458V70.7282H16.8887V6.12506Z" fill="#1E1E2B"/>
<path d="M70.8731 59.8297V59.9865H6.12305V59.8297H70.8731Z" fill="#1E1E2B"/>
<path d="M70.8731 27.6068V27.7636H6.12305V27.6068H70.8731Z" fill="#1E1E2B"/>
<path d="M70.8731 49.0888V49.2456H6.12305V49.0888H70.8731Z" fill="#1E1E2B"/>
<path d="M70.8731 16.866V17.0228H6.12305V16.866H70.8731Z" fill="#1E1E2B"/>
<path d="M51.4703 41.5H31.5633V35.1692H51.4703V41.5ZM54.2795 27.292H29.0447V55.6596H22.748V24.175C22.748 23.74 22.8288 23.3292 22.9902 22.9426C23.1517 22.556 23.3696 22.2177 23.6441 21.9278C23.9347 21.6378 24.2738 21.4123 24.6612 21.2512C25.0487 21.0901 25.4685 21.0096 25.9206 21.0096H54.2795V27.292Z" fill="url(#paint1_linear_311_470)"/>
</g>
<path d="M54.6864 6.32693H22.3113C13.483 6.32693 6.32617 13.4675 6.32617 22.2759V54.5775C6.32617 63.3858 13.483 70.5264 22.3113 70.5264H54.6864C63.5148 70.5264 70.6716 63.3858 70.6716 54.5775V22.2759C70.6716 13.4675 63.5148 6.32693 54.6864 6.32693Z" stroke="#1E1E2B" stroke-width="0.404687"/>
</g>
</g>
<defs>
<filter id="filter0_dd_311_470" x="0.0527172" y="2.07771" width="76.8916" height="76.7448" filterUnits="userSpaceOnUse" color-interpolation-filters="sRGB">
<feFlood flood-opacity="0" result="BackgroundImageFix"/>
<feColorMatrix in="SourceAlpha" type="matrix" values="0 0 0 0 0 0 0 0 0 0 0 0 0 0 0 0 0 0 127 0" result="hardAlpha"/>
<feOffset dy="2.02344"/>
<feGaussianBlur stdDeviation="2.02344"/>
<feColorMatrix type="matrix" values="0 0 0 0 0.0627451 0 0 0 0 0.0941176 0 0 0 0 0.156863 0 0 0 0.06 0"/>
<feBlend mode="normal" in2="BackgroundImageFix" result="effect1_dropShadow_311_470"/>
<feColorMatrix in="SourceAlpha" type="matrix" values="0 0 0 0 0 0 0 0 0 0 0 0 0 0 0 0 0 0 127 0" result="hardAlpha"/>
<feOffset dy="2.02344"/>
<feGaussianBlur stdDeviation="3.03516"/>
<feColorMatrix type="matrix" values="0 0 0 0 0.0627451 0 0 0 0 0.0941176 0 0 0 0 0.156863 0 0 0 0.1 0"/>
<feBlend mode="normal" in2="effect1_dropShadow_311_470" result="effect2_dropShadow_311_470"/>
<feBlend mode="normal" in="SourceGraphic" in2="effect2_dropShadow_311_470" result="shape"/>
</filter>
<linearGradient id="paint0_linear_311_470" x1="38.498" y1="6.12506" x2="38.498" y2="70.7282" gradientUnits="userSpaceOnUse">
<stop stop-color="#101010"/>
<stop offset="1" stop-color="#191A1B"/>
</linearGradient>
<linearGradient id="paint1_linear_311_470" x1="17.3082" y1="19.7968" x2="51.6031" y2="56.4886" gradientUnits="userSpaceOnUse">
<stop stop-color="#ECECFF"/>
<stop offset="0.919792" stop-color="#ECECFF" stop-opacity="0.770052"/>
<stop offset="1" stop-color="white" stop-opacity="0.75"/>
</linearGradient>
<clipPath id="clip0_311_470">
<rect width="77" height="77" fill="white"/>
</clipPath>
</defs>
</svg>
