<svg width="440" height="441" viewBox="0 0 440 441" fill="none" xmlns="http://www.w3.org/2000/svg">
<g filter="url(#filter0_dd_209_4618)">
<g clip-path="url(#clip0_209_4618)">
<rect x="35" y="24" width="370" height="370" rx="92.5" fill="#101010"/>
<rect x="35" y="24" width="370" height="370" rx="92.5" fill="url(#paint0_linear_209_4618)"/>
<path d="M219.548 24H220.446V394H219.548V24Z" fill="#1E1E2B"/>
<path d="M405 208.548L405 209.447L34.9997 209.447L34.9997 208.548L405 208.548Z" fill="#1E1E2B"/>
<path d="M342.586 24H343.484V394H342.586V24Z" fill="#1E1E2B"/>
<path d="M158.032 24H158.93V394H158.032V24Z" fill="#1E1E2B"/>
<path d="M281.07 24H281.968V394H281.07V24Z" fill="#1E1E2B"/>
<path d="M96.5162 24H97.4142V394H96.5162V24Z" fill="#1E1E2B"/>
<path d="M405 331.581L405 332.479L34.9997 332.479L34.9997 331.581L405 331.581Z" fill="#1E1E2B"/>
<path d="M405 147.032L405 147.93L34.9997 147.93L34.9997 147.032L405 147.032Z" fill="#1E1E2B"/>
<path d="M405 270.065L405 270.963L34.9997 270.963L34.9997 270.065L405 270.065Z" fill="#1E1E2B"/>
<path d="M405 85.5161L405 86.4142L34.9997 86.4142L34.9997 85.5161L405 85.5161Z" fill="#1E1E2B"/>
<path d="M237.364 127.243L231.912 126.999C222.543 126.999 213.295 128.178 204.168 130.537C195.122 132.897 187.287 135.947 180.664 139.689C174.041 143.35 168.67 147.54 164.551 152.258C160.512 156.895 158.493 161.451 158.493 165.925C158.493 175.85 164.955 183.7 177.878 189.476C177.878 192.893 177.474 196.919 176.666 201.556C175.858 206.112 175.091 208.878 174.364 209.854C161.522 204.566 151.911 198.14 145.53 190.574C139.23 183.009 136.08 175.036 136.08 166.657C136.08 151.444 144.278 138.266 160.674 127.121C177.07 115.894 199.16 109.101 226.944 106.742C239.706 105.847 252.387 105.4 264.986 105.4C277.586 105.4 287.561 105.441 294.911 105.522C302.261 105.603 307.713 105.644 311.267 105.644L294.184 131.392C286.592 131.392 277.95 130.863 268.257 129.805C258.565 128.666 251.902 127.975 248.267 127.731C246.571 136.679 244.35 148.923 241.604 164.461C238.858 179.999 237.121 189.72 236.394 193.625C243.26 192.811 250.287 192.404 257.475 192.404C264.744 192.404 273.104 192.649 282.553 193.137C285.542 193.137 287.036 194.56 287.036 197.408C287.036 200.255 285.744 203.305 283.159 206.56C280.655 209.814 277.869 211.441 274.8 211.441C255.819 211.441 241.765 211.847 232.639 212.661C226.743 241.459 220.12 262.895 212.77 276.968C206.389 289.171 199.241 297.957 191.326 303.326C182.118 309.509 171.335 312.6 158.978 312.6C143.874 312.6 133.657 306.417 128.326 294.052C126.953 290.879 126.267 287.747 126.267 284.656C126.267 271.965 134.868 265.62 152.072 265.62C151.184 270.501 150.739 275.911 150.739 281.849C150.739 287.707 151.709 292.222 153.647 295.394C155.586 298.567 158.816 300.235 163.339 300.397C167.862 300.56 172.062 298.364 175.939 293.808C179.816 289.252 183.451 282.704 186.843 274.162C192.578 259.681 198.272 240.767 203.925 217.42L193.506 220.47C193.103 220.47 192.376 220.511 191.326 220.592C190.276 220.592 189.185 220.145 188.054 219.25C187.004 218.355 186.479 216.891 186.479 214.857C186.479 212.824 186.843 211.034 187.57 209.488C188.62 207.373 190.76 205.624 193.991 204.241C197.222 202.777 201.906 201.068 208.045 199.116C209.256 194.072 210.306 189.476 211.195 185.327C212.164 181.097 213.012 177.395 213.739 174.223C214.466 171.05 215.072 168.528 215.556 166.657C216.041 164.786 216.566 162.59 217.131 160.068C217.777 157.546 218.343 155.512 218.827 153.966C219.312 152.339 219.837 150.672 220.402 148.963C221.533 145.628 222.543 143.187 223.431 141.642C227.712 135.215 232.356 130.415 237.364 127.243Z" fill="url(#paint1_linear_209_4618)"/>
</g>
<rect x="36.1563" y="25.1563" width="367.688" height="367.688" rx="91.3438" stroke="#1E1E2B" stroke-width="2.3125"/>
</g>
<defs>
<filter id="filter0_dd_209_4618" x="0.3125" y="0.875" width="439.375" height="439.375" filterUnits="userSpaceOnUse" color-interpolation-filters="sRGB">
<feFlood flood-opacity="0" result="BackgroundImageFix"/>
<feColorMatrix in="SourceAlpha" type="matrix" values="0 0 0 0 0 0 0 0 0 0 0 0 0 0 0 0 0 0 127 0" result="hardAlpha"/>
<feOffset dy="11.5625"/>
<feGaussianBlur stdDeviation="11.5625"/>
<feColorMatrix type="matrix" values="0 0 0 0 0.0627451 0 0 0 0 0.0941176 0 0 0 0 0.156863 0 0 0 0.06 0"/>
<feBlend mode="normal" in2="BackgroundImageFix" result="effect1_dropShadow_209_4618"/>
<feColorMatrix in="SourceAlpha" type="matrix" values="0 0 0 0 0 0 0 0 0 0 0 0 0 0 0 0 0 0 127 0" result="hardAlpha"/>
<feOffset dy="11.5625"/>
<feGaussianBlur stdDeviation="17.3438"/>
<feColorMatrix type="matrix" values="0 0 0 0 0.0627451 0 0 0 0 0.0941176 0 0 0 0 0.156863 0 0 0 0.1 0"/>
<feBlend mode="normal" in2="effect1_dropShadow_209_4618" result="effect2_dropShadow_209_4618"/>
<feBlend mode="normal" in="SourceGraphic" in2="effect2_dropShadow_209_4618" result="shape"/>
</filter>
<linearGradient id="paint0_linear_209_4618" x1="220" y1="24" x2="220" y2="394" gradientUnits="userSpaceOnUse">
<stop stop-color="#101010"/>
<stop offset="1" stop-color="#191A1B"/>
</linearGradient>
<linearGradient id="paint1_linear_209_4618" x1="126.267" y1="204.856" x2="320.56" y2="204.856" gradientUnits="userSpaceOnUse">
<stop stop-color="#ECECFF"/>
<stop offset="0.919792" stop-color="#ECECFF" stop-opacity="0.770052"/>
<stop offset="1" stop-color="white" stop-opacity="0.75"/>
</linearGradient>
<clipPath id="clip0_209_4618">
<rect x="35" y="24" width="370" height="370" rx="92.5" fill="white"/>
</clipPath>
</defs>
</svg>
